<svg width="900" height="1100" viewBox="0 0 900 1100" fill="none" xmlns="http://www.w3.org/2000/svg">
  <rect width="900" height="1100" rx="40" fill="#251916"/>
  <rect x="106" y="92" width="688" height="916" rx="26" fill="#E8C48C"/>
  <path d="M106 243C207 197 241 291 317 291C393 291 427 197 503 197C579 197 613 291 689 291C765 291 799 197 900 243V425C799 471 765 377 689 377C613 377 579 471 503 471C427 471 393 377 317 377C241 377 207 471 106 425V243Z" fill="#A04C31"/>
  <path d="M106 549C207 503 241 597 317 597C393 597 427 503 503 503C579 503 613 597 689 597C765 597 799 503 900 549V731C799 777 765 683 689 683C613 683 579 777 503 777C427 777 393 683 317 683C241 683 207 777 106 731V549Z" fill="#6D3126"/>
</svg>
