<svg width="900" height="1100" viewBox="0 0 900 1100" fill="none" xmlns="http://www.w3.org/2000/svg">
  <rect width="900" height="1100" rx="40" fill="#211613"/>
  <rect x="82" y="86" width="736" height="930" rx="28" fill="#5E2E24"/>
  <path d="M82 229C186 180 221 282 300 282C378 282 413 180 492 180C570 180 605 282 684 282C762 282 797 180 901 229V405C797 454 762 352 684 352C605 352 570 454 492 454C413 454 378 352 300 352C221 352 186 454 82 405V229Z" fill="#E6B97A"/>
  <path d="M82 490C186 441 221 543 300 543C378 543 413 441 492 441C570 441 605 543 684 543C762 543 797 441 901 490V666C797 715 762 613 684 613C605 613 570 715 492 715C413 715 378 613 300 613C221 613 186 715 82 666V490Z" fill="#8F3D2C"/>
  <path d="M82 751C186 702 221 804 300 804C378 804 413 702 492 702C570 702 605 804 684 804C762 804 797 702 901 751V927C797 976 762 874 684 874C605 874 570 976 492 976C413 976 378 874 300 874C221 874 186 976 82 927V751Z" fill="#C76E3F"/>
</svg>
