<svg width="900" height="1100" viewBox="0 0 900 1100" fill="none" xmlns="http://www.w3.org/2000/svg">
  <rect width="900" height="1100" rx="40" fill="#2F1A12"/>
  <rect x="84" y="86" width="732" height="928" rx="28" fill="#F0C07A"/>
  <path d="M84 219C188 177 223 259 302 259C380 259 414 177 493 177C572 177 606 259 685 259C763 259 798 177 902 219V385C798 427 763 345 685 345C606 345 572 427 493 427C414 427 380 345 302 345C223 345 188 427 84 385V219Z" fill="#A3472A"/>
  <path d="M84 481C188 439 223 521 302 521C380 521 414 439 493 439C572 439 606 521 685 521C763 521 798 439 902 481V647C798 689 763 607 685 607C606 607 572 689 493 689C414 689 380 607 302 607C223 607 188 689 84 647V481Z" fill="#7B2E24"/>
  <path d="M84 743C188 701 223 783 302 783C380 783 414 701 493 701C572 701 606 783 685 783C763 783 798 701 902 743V909C798 951 763 869 685 869C606 869 572 951 493 951C414 951 380 869 302 869C223 869 188 951 84 909V743Z" fill="#D28B52"/>
</svg>
