<svg width="900" height="1100" viewBox="0 0 900 1100" fill="none" xmlns="http://www.w3.org/2000/svg">
  <rect width="900" height="1100" rx="40" fill="#1D1716"/>
  <rect x="96" y="96" width="708" height="908" rx="26" fill="#E8CFA2"/>
  <path d="M96 232C199 182 233 286 309.75 286C386.5 286 420.5 182 497.25 182C574 182 608 286 684.75 286C761.5 286 795.5 182 899 232V424C795.5 474 761.5 370 684.75 370C608 370 574 474 497.25 474C420.5 474 386.5 370 309.75 370C233 370 199 474 96 424V232Z" fill="#9B5B3A"/>
  <path d="M96 532C199 482 233 586 309.75 586C386.5 586 420.5 482 497.25 482C574 482 608 586 684.75 586C761.5 586 795.5 482 899 532V724C795.5 774 761.5 670 684.75 670C608 670 574 774 497.25 774C420.5 774 386.5 670 309.75 670C233 670 199 774 96 724V532Z" fill="#5F3423"/>
</svg>
