<svg width="900" height="1100" viewBox="0 0 900 1100" fill="none" xmlns="http://www.w3.org/2000/svg">
  <rect width="900" height="1100" rx="40" fill="#281B18"/>
  <rect x="98" y="98" width="704" height="904" rx="24" fill="#B05A34"/>
  <path d="M98 252C199 203 233 304 309 304C385 304 419 203 495 203C571 203 605 304 681 304C757 304 791 203 892 252V432C791 481 757 380 681 380C605 380 571 481 495 481C419 481 385 380 309 380C233 380 199 481 98 432V252Z" fill="#F3C085"/>
  <path d="M98 553C199 504 233 605 309 605C385 605 419 504 495 504C571 504 605 605 681 605C757 605 791 504 892 553V733C791 782 757 681 681 681C605 681 571 782 495 782C419 782 385 681 309 681C233 681 199 782 98 733V553Z" fill="#692A20"/>
</svg>
