<svg width="900" height="1100" viewBox="0 0 900 1100" fill="none" xmlns="http://www.w3.org/2000/svg">
  <rect width="900" height="1100" rx="40" fill="#3A2417"/>
  <rect x="70" y="94" width="760" height="908" rx="32" fill="#D89658"/>
  <path d="M70 217C176 181 210 257 295 257C379 257 413 181 498 181C582 181 616 257 701 257C785 257 819 181 925 217V395C819 431 785 355 701 355C616 355 582 431 498 431C413 431 379 355 295 355C210 355 176 431 70 395V217Z" fill="#7C3327"/>
  <path d="M70 461C176 425 210 501 295 501C379 501 413 425 498 425C582 425 616 501 701 501C785 501 819 425 925 461V639C819 675 785 599 701 599C616 599 582 675 498 675C413 675 379 599 295 599C210 599 176 675 70 639V461Z" fill="#F1C98C"/>
  <path d="M70 705C176 669 210 745 295 745C379 745 413 669 498 669C582 669 616 745 701 745C785 745 819 669 925 705V883C819 919 785 843 701 843C616 843 582 919 498 919C413 919 379 843 295 843C210 843 176 919 70 883V705Z" fill="#9C4A31"/>
</svg>
