<svg width="1200" height="1400" viewBox="0 0 1200 1400" fill="none" xmlns="http://www.w3.org/2000/svg">
  <rect width="1200" height="1400" rx="48" fill="#3F2317"/>
  <rect width="1200" height="1400" rx="48" fill="url(#paint0_linear_1_2)"/>
  <path d="M-75 244C92 199 147 308 272 308C398 308 452 199 578 199C704 199 758 308 884 308C1009 308 1064 199 1231 244V548C1064 593 1009 484 884 484C758 484 704 593 578 593C452 593 398 484 272 484C147 484 92 593 -75 548V244Z" fill="#D9904D"/>
  <path d="M-75 604C92 559 147 668 272 668C398 668 452 559 578 559C704 559 758 668 884 668C1009 668 1064 559 1231 604V908C1064 953 1009 844 884 844C758 844 704 953 578 953C452 953 398 844 272 844C147 844 92 953 -75 908V604Z" fill="#F3C27A"/>
  <path d="M-75 964C92 919 147 1028 272 1028C398 1028 452 919 578 919C704 919 758 1028 884 1028C1009 1028 1064 919 1231 964V1268C1064 1313 1009 1204 884 1204C758 1204 704 1313 578 1313C452 1313 398 1204 272 1204C147 1204 92 1313 -75 1268V964Z" fill="#A84B2A"/>
  <defs>
    <linearGradient id="paint0_linear_1_2" x1="171" y1="72.5" x2="1000.5" y2="1331" gradientUnits="userSpaceOnUse">
      <stop stop-color="#5E3220"/>
      <stop offset="0.536458" stop-color="#7E4528"/>
      <stop offset="1" stop-color="#28140C"/>
    </linearGradient>
  </defs>
</svg>
