<svg width="900" height="700" viewBox="0 0 900 700" fill="none" xmlns="http://www.w3.org/2000/svg">
  <rect width="900" height="700" rx="44" fill="#24130D"/>
  <rect width="900" height="700" rx="44" fill="url(#paint0_linear_2_2)"/>
  <path d="M-66 134.586C74.5 96.0859 121.27 187.086 227 187.086C332.73 187.086 379.5 96.0859 485.23 96.0859C590.959 96.0859 637.73 187.086 743.459 187.086C849.189 187.086 895.959 96.0859 1036.46 134.586V314.586C895.959 353.086 849.189 262.086 743.459 262.086C637.73 262.086 590.959 353.086 485.23 353.086C379.5 353.086 332.73 262.086 227 262.086C121.27 262.086 74.5 353.086 -66 314.586V134.586Z" fill="#B86338"/>
  <path d="M-66 387.586C74.5 349.086 121.27 440.086 227 440.086C332.73 440.086 379.5 349.086 485.23 349.086C590.959 349.086 637.73 440.086 743.459 440.086C849.189 440.086 895.959 349.086 1036.46 387.586V567.586C895.959 606.086 849.189 515.086 743.459 515.086C637.73 515.086 590.959 606.086 485.23 606.086C379.5 606.086 332.73 515.086 227 515.086C121.27 515.086 74.5 606.086 -66 567.586V387.586Z" fill="#E0A36D"/>
  <defs>
    <linearGradient id="paint0_linear_2_2" x1="117" y1="38" x2="758.5" y2="683" gradientUnits="userSpaceOnUse">
      <stop stop-color="#5E2F21"/>
      <stop offset="0.560972" stop-color="#8C482B"/>
      <stop offset="1" stop-color="#21130F"/>
    </linearGradient>
  </defs>
</svg>
