<svg width="900" height="700" viewBox="0 0 900 700" fill="none" xmlns="http://www.w3.org/2000/svg">
  <rect width="900" height="700" rx="36" fill="#1E1A19"/>
  <rect x="110" y="102" width="680" height="496" rx="34" fill="#8B402A"/>
  <path d="M110 216C215 179 251 254 332 254C412 254 447 179 528 179C608 179 643 254 724 254C804 254 840 179 945 216V385C840 422 804 347 724 347C643 347 608 422 528 422C447 422 412 347 332 347C251 347 215 422 110 385V216Z" fill="#F1C283"/>
  <circle cx="246" cy="512" r="66" fill="#E8D1AF"/>
</svg>
