<svg width="900" height="700" viewBox="0 0 900 700" fill="none" xmlns="http://www.w3.org/2000/svg">
  <rect width="900" height="700" rx="36" fill="#311E15"/>
  <rect x="84" y="90" width="732" height="520" rx="28" fill="#D18B53"/>
  <path d="M84 208C196 164 233 250 317 250C400 250 437 164 521 164C604 164 641 250 725 250C808 250 845 164 957 208V388C845 432 808 346 725 346C641 346 604 432 521 432C437 432 400 346 317 346C233 346 196 432 84 388V208Z" fill="#6C2D22"/>
  <path d="M84 424C196 380 233 466 317 466C400 466 437 380 521 380C604 380 641 466 725 466C808 466 845 380 957 424V604C845 648 808 562 725 562C641 562 604 648 521 648C437 648 400 562 317 562C233 562 196 648 84 604V424Z" fill="#F4C991"/>
</svg>
