<svg width="900" height="700" viewBox="0 0 900 700" fill="none" xmlns="http://www.w3.org/2000/svg">
  <rect width="900" height="700" rx="36" fill="#221714"/>
  <circle cx="698" cy="182" r="112" fill="#E4C18D"/>
  <rect x="120" y="106" width="318" height="488" rx="28" fill="#7D3728"/>
  <path d="M-40 472C83 432 124 514 216 514C308 514 349 432 441 432C533 432 574 514 666 514C758 514 799 432 922 472V646C799 686 758 604 666 604C574 604 533 686 441 686C349 686 308 604 216 604C124 604 83 686 -40 646V472Z" fill="#C77447"/>
</svg>
