<svg width="900" height="700" viewBox="0 0 900 700" fill="none" xmlns="http://www.w3.org/2000/svg">
  <rect width="900" height="700" rx="36" fill="#2A1812"/>
  <circle cx="246" cy="255" r="140" fill="#E8BC7A"/>
  <rect x="420" y="110" width="250" height="480" rx="30" fill="#6D3124"/>
  <path d="M-50 486C65 445 104 522 190 522C276 522 315 445 401 445C487 445 526 522 612 522C698 522 737 445 852 486V654C737 695 698 618 612 618C526 618 487 695 401 695C315 695 276 618 190 618C104 618 65 695 -50 654V486Z" fill="#C57745"/>
</svg>
