<svg width="900" height="560" viewBox="0 0 900 560" fill="none" xmlns="http://www.w3.org/2000/svg">
  <rect width="900" height="560" rx="30" fill="#1D1715"/>
  <circle cx="698" cy="166" r="88" fill="#E9C992"/>
  <rect x="92" y="72" width="354" height="416" rx="26" fill="#7F3B2A"/>
  <path d="M-40 358C85 314 126 402 220 402C314 402 355 314 449 314C543 314 584 402 678 402C772 402 813 314 938 358V508C813 552 772 464 678 464C584 464 543 552 449 552C355 552 314 464 220 464C126 464 85 552 -40 508V358Z" fill="#D0824E"/>
</svg>
